<?xml version="1.0" standalone="no"?>
<!DOCTYPE svg PUBLIC "-//W3C//DTD SVG 20010904//EN"
 "http://www.w3.org/TR/2001/REC-SVG-20010904/DTD/svg10.dtd">
<svg version="1.0" xmlns="http://www.w3.org/2000/svg"
 width="300.000000pt" height="300.000000pt" viewBox="0 0 300.000000 300.000000"
 preserveAspectRatio="xMidYMid meet">
<metadata>
Created by potrace 1.10, written by Peter Selinger 2001-2011
</metadata>
<g transform="translate(0.000000,300.000000) scale(0.100000,-0.100000)"
fill="#000000" stroke="none">
<path d="M1349 2500 c-219 -68 -372 -277 -368 -500 2 -50 2 -52 9 -20 10 45
10 35 13 -587 l2 -493 312 0 c240 0 312 3 316 13 4 10 6 10 6 0 1 -10 44 -13
179 -13 l177 0 -2 227 c-2 126 -4 399 -5 608 -2 281 -6 385 -15 400 -11 17
-12 8 -8 -52 5 -75 -1 -85 -35 -63 -12 8 -13 13 -2 30 15 25 15 47 0 52 -7 3
-13 15 -13 29 0 15 -6 24 -15 24 -8 0 -20 6 -26 14 -8 10 -13 11 -18 3 -4 -7
-16 -12 -27 -12 -21 0 -26 -26 -6 -33 9 -3 7 -9 -6 -24 -25 -29 -10 -60 26
-54 4 0 7 -3 7 -8 0 -5 25 -21 55 -36 l55 -28 0 -99 0 -98 -31 0 c-24 0 -30 3
-25 16 3 9 4 20 1 24 -8 13 -35 1 -35 -15 0 -17 -58 -25 -70 -10 -6 7 -9 23
-8 36 2 16 -3 24 -16 27 -25 5 -42 -13 -28 -31 6 -7 9 -23 5 -35 -4 -15 -1
-22 10 -22 8 0 21 -10 29 -22 17 -25 38 -17 38 15 1 20 2 20 13 6 7 -9 35 -23
62 -31 42 -11 50 -18 53 -39 2 -19 -2 -28 -17 -32 -10 -2 -24 0 -30 6 -7 7
-12 5 -17 -6 -3 -9 -12 -17 -19 -17 -23 0 -11 -52 15 -62 17 -6 27 -3 41 13
11 12 20 20 22 18 2 -2 1 -28 -1 -57 l-4 -53 -67 7 c-36 3 -69 12 -73 18 -11
16 -10 68 1 62 13 -9 32 19 25 38 -3 9 -12 16 -18 16 -7 0 -12 10 -12 23 1 18
-4 22 -26 20 -16 -1 -28 2 -28 8 0 5 -9 9 -20 9 -11 0 -20 -5 -20 -10 0 -6
-10 -8 -24 -4 -28 7 -43 -11 -27 -30 9 -11 7 -15 -10 -19 -27 -7 -22 -41 8
-45 14 -2 23 -12 25 -25 3 -19 9 -22 39 -20 48 3 78 -26 61 -60 -24 -49 -25
-68 -3 -74 14 -3 21 -13 21 -29 0 -25 6 -28 50 -24 30 2 54 28 40 45 -13 16 0
55 19 55 40 -1 43 -12 36 -134 l-7 -117 -149 3 c-135 3 -149 1 -149 -14 0 -10
10 -26 21 -37 25 -23 19 -51 -11 -51 -12 0 -31 -5 -42 -11 -14 -7 -23 -8 -30
-1 -7 7 -18 6 -35 -5 -22 -14 -25 -14 -43 2 -16 14 -23 15 -34 6 -11 -9 -20
-10 -35 -2 -11 6 -29 11 -40 11 -17 0 -21 6 -21 29 0 28 2 29 29 21 32 -9 41
1 41 43 0 19 -6 22 -37 22 -21 0 -82 4 -135 8 -68 6 -98 5 -98 -2 0 -6 10 -11
23 -12 22 0 22 0 1 -9 -14 -5 -23 -20 -26 -39 -4 -24 -2 -28 9 -20 7 7 13 17
13 25 0 26 81 35 123 13 13 -7 17 -6 17 6 0 8 6 15 14 15 11 0 12 -8 4 -38
-11 -44 6 -85 37 -90 11 -1 47 -6 80 -11 82 -13 205 0 205 20 0 5 7 9 16 9 12
0 15 9 12 37 -3 44 -14 41 145 46 l117 3 0 -122 c0 -87 -4 -125 -13 -132 -19
-16 -707 -15 -707 1 0 9 -2 9 -8 0 -4 -7 -26 -11 -54 -9 -26 1 -45 -1 -42 -6
3 -4 0 -8 -5 -8 -6 0 -11 4 -11 10 0 5 -7 7 -15 4 -8 -4 -26 -3 -40 0 -25 6
-25 8 -25 111 0 75 -3 105 -12 105 -9 0 -9 3 0 12 7 7 12 24 12 39 0 27 2 27
55 26 30 -1 58 2 62 6 13 14 -21 27 -62 25 -38 -3 -40 -1 -43 29 -3 27 -1 31
17 26 12 -3 28 0 36 7 9 7 15 8 15 2 0 -16 31 -23 46 -11 8 6 14 19 14 29 0
10 9 20 20 23 26 7 27 47 1 54 -15 4 -19 12 -16 32 6 43 16 60 31 54 10 -4 17
2 21 16 3 11 12 21 19 21 17 0 18 36 2 47 -7 4 -13 15 -13 23 0 9 -7 14 -18
12 -10 -2 -25 2 -32 8 -8 7 -20 8 -27 4 -7 -5 -20 -9 -28 -9 -10 0 -14 -8 -13
-22 2 -15 -3 -23 -13 -23 -9 0 -14 -7 -12 -17 2 -10 11 -17 21 -17 10 1 17 -5
17 -17 0 -17 11 -24 33 -20 19 3 4 -21 -19 -29 -21 -9 -29 -7 -39 7 -13 17
-14 17 -34 -1 -29 -26 -37 -14 -44 61 l-5 63 62 43 c34 24 69 46 79 50 9 3 17
14 17 24 0 14 8 18 36 18 44 0 65 24 47 54 -9 14 -8 21 3 33 11 11 12 21 5 41
-6 15 -14 27 -18 28 -5 0 -29 2 -55 5 -44 4 -48 3 -54 -21 -3 -14 -3 -33 1
-42 6 -16 8 -15 18 5 8 18 17 22 41 20 17 -2 30 -6 29 -10 -2 -5 -3 -24 -3
-43 0 -25 -5 -37 -17 -41 -10 -3 -28 -10 -40 -16 -16 -8 -27 -7 -44 6 -13 9
-18 16 -12 16 6 0 14 12 17 27 8 28 -7 45 -31 36 -19 -7 -16 -43 4 -43 15 0
15 -2 -1 -19 -19 -21 -14 -41 10 -41 15 0 18 -9 6 -25 -7 -10 -93 -47 -97 -42
-1 1 -5 37 -9 81 -6 69 -5 78 9 73 8 -4 24 1 34 9 17 15 17 18 3 47 -12 24
-13 32 -3 35 7 2 25 16 40 31 27 27 34 31 51 31 17 0 33 40 21 54 -6 6 -8 22
-4 35 4 17 1 23 -16 28 -11 3 -21 11 -21 18 0 23 -30 25 -47 5 -10 -11 -23
-20 -30 -20 -18 0 -26 -19 -14 -34 9 -10 8 -15 -5 -20 -13 -5 -14 -9 -4 -21
10 -12 10 -18 0 -30 -10 -12 -9 -16 3 -21 9 -3 21 -3 27 1 5 3 10 -1 10 -9 0
-9 -13 -22 -30 -31 -28 -14 -30 -14 -31 2 -2 44 -6 80 -13 108 -6 23 -5 27 4
15 8 -12 9 -7 4 22 -3 21 -1 44 6 55 10 16 10 15 5 -7 -3 -14 8 4 25 40 17 35
29 69 26 75 -2 6 5 22 16 36 15 18 18 20 14 5 -5 -15 -4 -17 8 -7 11 9 17 4
31 -26 10 -21 23 -45 30 -53 6 -8 20 -45 29 -81 11 -42 31 -84 57 -118 55 -73
61 -93 59 -192 -1 -80 1 -91 35 -160 28 -58 35 -82 30 -109 -19 -120 -18 -150
10 -216 15 -36 30 -63 32 -60 2 2 -7 41 -21 85 -23 71 -24 87 -15 124 26 99
24 120 -21 194 l-42 68 7 86 c7 96 -3 131 -50 184 -42 47 -52 66 -65 125 -6
30 -28 84 -50 120 l-38 65 29 28 c23 22 33 25 48 18 19 -11 31 -5 31 13 0 6
-4 5 -9 -3 -6 -9 -11 -10 -15 -2 -13 21 3 30 36 20 17 -5 34 -7 36 -4 2 2 -7
7 -22 11 -30 7 -35 24 -7 24 10 0 24 6 31 14 6 8 19 12 27 9 9 -4 14 -2 10 3
-3 5 6 11 21 12 14 1 29 8 34 15 6 9 8 9 8 -2 0 -11 3 -11 15 -1 12 10 18 10
31 0 12 -11 15 -11 12 1 -4 18 42 25 53 7 7 -10 9 -10 9 0 0 13 28 16 54 6 9
-3 13 -10 10 -15 -3 -5 0 -9 5 -9 6 0 11 5 11 10 0 6 7 10 16 10 14 0 15 -2 3
-17 -13 -15 -12 -15 8 -5 29 16 43 15 43 -2 0 -8 6 -14 13 -13 40 1 56 -4 51
-17 -4 -11 0 -13 15 -9 13 3 21 1 21 -6 0 -7 4 -10 10 -6 5 3 14 -9 19 -27 5
-18 10 -25 10 -15 1 25 14 21 32 -12 11 -18 13 -34 8 -42 -5 -9 -9 -9 -9 -3 0
7 -7 14 -15 18 -12 4 -13 2 -6 -13 6 -10 7 -21 4 -25 -3 -3 -3 -6 1 -6 4 0 19
12 33 28 24 25 25 25 19 5 -6 -19 -4 -22 10 -16 11 4 15 3 11 -4 -4 -6 0 -19
9 -27 11 -11 13 -21 7 -29 -6 -7 -13 -21 -16 -32 -6 -17 -4 -17 13 4 11 13 20
19 20 15 0 -5 4 -3 9 4 7 11 9 10 14 -3 4 -9 3 -13 -3 -10 -14 9 -12 -6 6 -35
l15 -25 -6 25 c-5 22 -5 23 6 6 6 -10 20 -41 30 -70 21 -60 27 -26 6 39 -51
161 -189 298 -347 345 -86 25 -221 26 -301 0z m551 -422 c0 -22 -23 -23 -39
-4 -10 11 -10 20 -1 36 11 21 12 21 25 3 8 -10 15 -26 15 -35z m-774 4 c15 -9
23 -71 11 -79 -40 -24 -74 -2 -61 41 12 40 29 53 50 38z m634 -416 c0 5 7 -2
16 -15 13 -18 14 -28 6 -46 -10 -21 -15 -23 -44 -14 -18 5 -34 9 -34 9 -1 0
-5 7 -8 15 -8 22 35 66 52 52 6 -5 12 -6 12 -1z m-547 -79 c23 -9 22 -34 -4
-48 -18 -9 -25 -7 -42 10 -20 20 -20 21 -2 41 10 11 21 17 24 12 3 -5 14 -11
24 -15z m623 -92 c-4 -10 1 -15 14 -15 17 0 19 -5 13 -32 -8 -42 -10 -45 -31
-32 -23 15 -27 41 -11 70 14 27 24 32 15 9z m-674 -68 c22 -27 22 -37 0 -62
-12 -15 -31 -21 -69 -22 l-51 -2 0 48 c-1 40 3 50 21 59 30 15 79 4 99 -21z"/>
<path d="M1413 2463 c4 -7 -8 -13 -28 -17 -35 -7 -49 -23 -20 -23 8 0 15 4 15
9 0 4 9 8 19 8 24 0 36 16 20 26 -7 4 -9 3 -6 -3z"/>
<path d="M1507 2453 c-16 -15 -3 -22 53 -29 32 -3 58 -10 57 -14 -1 -5 3 -8 8
-8 6 0 9 5 7 12 -1 6 5 2 13 -8 8 -11 15 -18 16 -15 0 2 2 11 4 19 2 11 -8 16
-33 18 -20 1 -40 8 -44 15 -6 9 -8 9 -8 0 0 -14 -43 -8 -48 7 -4 11 -16 13
-25 3z"/>
<path d="M1450 2440 c-12 -8 -12 -10 5 -11 18 -1 17 -2 -3 -7 -21 -6 -20 -8
13 -18 19 -6 35 -7 35 -3 0 5 -5 9 -11 9 -6 0 -8 7 -5 16 3 8 2 13 -3 9 -5 -3
-11 -1 -13 5 -2 6 -8 6 -18 0z"/>
<path d="M1680 2410 c0 -6 7 -13 15 -16 8 -4 13 -10 10 -14 -3 -5 -1 -11 5
-15 5 -3 10 -1 10 5 0 6 5 8 10 5 6 -4 8 -11 5 -16 -3 -5 1 -6 9 -3 12 5 12 8
-2 23 -9 10 -19 18 -22 18 -33 2 -35 3 -20 13 13 8 12 10 -2 10 -10 0 -18 -5
-18 -10z"/>
<path d="M1310 2399 c0 -5 5 -7 10 -4 6 3 10 1 10 -5 0 -6 4 -9 9 -6 5 4 11 2
13 -4 2 -6 9 0 17 12 13 21 13 22 -2 10 -10 -9 -17 -10 -22 -2 -8 13 -35 13
-35 -1z"/>
<path d="M1310 2252 l0 -52 -40 0 c-51 0 -53 -18 -2 -22 37 -3 37 -4 43 -53 5
-53 16 -45 21 15 3 34 4 35 53 41 53 5 45 16 -15 21 -33 3 -35 5 -38 43 -5 62
-22 67 -22 7z"/>
<path d="M1487 2179 c-33 -25 -36 -70 -7 -99 26 -26 60 -25 88 0 60 56 -17
150 -81 99z m73 -50 c0 -22 -6 -30 -24 -35 -34 -8 -46 2 -46 36 0 19 6 30 18
32 34 8 52 -3 52 -33z"/>
<path d="M1789 1993 c-35 -38 -49 -66 -48 -100 0 -25 3 -22 23 22 13 28 31 58
40 68 10 9 16 22 14 28 -2 5 -15 -3 -29 -18z"/>
<path d="M1794 1894 c-8 -30 12 -57 22 -31 3 9 17 17 30 17 19 0 24 -5 24 -25
0 -23 2 -24 20 -13 21 13 25 34 11 56 -4 7 -29 15 -54 18 -43 4 -47 2 -53 -22z"/>
<path d="M1671 1543 c-1 -6 4 -24 10 -40 21 -54 20 -84 -5 -151 -13 -37 -27
-78 -31 -92 -6 -24 -5 -24 9 -6 26 32 58 128 58 172 0 37 -39 148 -41 117z"/>
<path d="M1507 1402 c-14 -15 -17 -28 -11 -57 6 -35 5 -37 -14 -31 -30 10 -41
-37 -19 -76 9 -16 14 -35 11 -43 -4 -8 -1 -15 5 -15 16 0 14 27 -5 55 -18 28
-12 58 9 49 22 -8 40 22 33 57 -5 26 -3 30 10 25 9 -3 20 -6 25 -6 5 0 9 -7 9
-15 0 -8 4 -15 8 -15 4 0 6 -16 4 -35 -3 -22 0 -35 7 -35 9 0 9 -6 0 -22 -9
-17 -9 -24 3 -32 8 -6 13 -17 10 -25 -2 -7 2 -17 9 -22 21 -13 35 -11 21 3 -7
7 -12 20 -12 30 0 10 -5 18 -11 18 -11 0 -9 28 6 64 7 16 5 18 -8 13 -15 -6
-16 -1 -11 35 5 30 4 39 -4 34 -7 -4 -12 -1 -12 8 0 8 -9 17 -19 21 -11 3 -21
13 -23 22 -2 13 -6 12 -21 -5z"/>
<path d="M1132 1195 c8 -19 14 -22 20 -13 14 22 9 38 -12 38 -17 0 -18 -3 -8
-25z"/>
<path d="M1806 1138 c-5 -16 -18 -30 -34 -36 l-27 -9 33 -5 c38 -5 46 4 40 49
l-4 28 -8 -27z"/>
<path d="M1837 1120 c-7 -25 12 -38 43 -30 l25 6 -22 8 c-13 4 -23 14 -23 22
0 21 -17 17 -23 -6z"/>
<path d="M1771 1058 c14 -6 31 -23 37 -37 10 -25 11 -25 9 9 -2 33 -4 35 -37
37 -34 2 -34 1 -9 -9z"/>
<path d="M1841 1033 c0 -30 2 -34 8 -18 5 11 7 23 4 28 -2 4 4 7 14 7 10 0 25
5 33 10 11 7 5 10 -22 10 -37 0 -38 -1 -37 -37z"/>
<path d="M980 880 c0 -20 7 -20 520 -20 513 0 520 0 520 20 0 21 -15 27 -25
10 -8 -14 -982 -14 -990 0 -10 17 -25 11 -25 -10z"/>
<path d="M850 715 c0 -8 9 -15 20 -15 18 0 20 -7 20 -55 0 -48 2 -55 20 -55
18 0 20 7 20 55 0 48 2 55 20 55 11 0 20 7 20 15 0 12 -13 15 -60 15 -47 0
-60 -3 -60 -15z"/>
<path d="M980 660 c0 -63 2 -70 20 -70 16 0 20 7 20 31 0 27 3 30 28 27 23 -3
27 -7 24 -30 -3 -23 1 -28 17 -28 19 0 21 6 21 70 0 63 -2 70 -20 70 -16 0
-20 -7 -20 -30 0 -25 -4 -30 -25 -30 -21 0 -25 5 -25 30 0 23 -4 30 -20 30
-18 0 -20 -7 -20 -70z"/>
<path d="M1132 660 c0 -62 3 -70 19 -70 12 0 19 7 19 20 0 11 6 20 14 20 8 0
18 -9 21 -20 3 -11 15 -20 26 -20 22 0 24 11 7 28 -10 10 -10 17 0 32 28 46 2
80 -63 80 l-44 0 1 -70z m83 20 c0 -8 -10 -16 -22 -18 -18 -3 -23 2 -23 18 0
16 5 21 23 18 12 -2 22 -10 22 -18z"/>
<path d="M1270 660 c0 -63 2 -70 20 -70 18 0 20 7 20 70 0 63 -2 70 -20 70
-18 0 -20 -7 -20 -70z"/>
<path d="M1336 663 l3 -68 45 -3 c36 -2 46 0 46 12 0 11 -10 16 -30 16 -30 0
-30 1 -30 55 0 46 -3 55 -18 55 -16 0 -18 -8 -16 -67z"/>
<path d="M1440 660 l0 -70 45 0 c51 0 66 26 18 32 -26 3 -27 5 -24 56 2 47 0
52 -18 52 -19 0 -21 -6 -21 -70z"/>
<path d="M1537 724 c-10 -11 3 -24 24 -24 16 0 19 -7 19 -55 0 -42 3 -55 15
-55 12 0 15 13 15 55 0 48 2 55 20 55 11 0 20 7 20 15 0 11 -13 15 -53 15 -30
0 -57 -3 -60 -6z"/>
<path d="M1680 710 c-29 -29 -26 -74 6 -99 15 -12 34 -21 44 -21 10 0 29 9 44
21 50 40 21 119 -44 119 -17 0 -39 -9 -50 -20z m84 -32 c14 -23 -3 -52 -32
-56 -29 -4 -51 40 -32 63 16 20 49 16 64 -7z"/>
<path d="M1820 660 c0 -65 2 -70 21 -70 16 0 20 5 16 20 -4 15 0 20 15 20 36
0 58 19 58 50 0 35 -23 50 -74 50 l-36 0 0 -70z m80 20 c0 -15 -7 -20 -25 -20
-18 0 -25 5 -25 20 0 15 7 20 25 20 18 0 25 -5 25 -20z"/>
<path d="M1950 659 c0 -62 2 -70 18 -67 14 3 18 16 20 71 3 62 1 67 -18 67
-18 0 -20 -6 -20 -71z"/>
<path d="M2031 672 c-13 -31 -25 -63 -28 -69 -3 -7 2 -13 11 -13 9 0 19 7 22
15 4 9 19 15 35 15 17 0 32 -6 35 -15 5 -13 44 -23 44 -11 0 2 -14 33 -30 70
-39 85 -57 87 -89 8z m56 -28 c-3 -3 -12 -4 -20 -2 -11 2 -12 9 -5 28 l10 25
11 -23 c5 -12 8 -25 4 -28z"/>
<path d="M1237 510 c-63 -19 -80 -66 -27 -77 17 -3 33 -9 35 -13 8 -13 -50
-29 -68 -19 -20 12 -35 -10 -16 -22 27 -18 109 15 109 43 0 5 -16 16 -35 24
-19 8 -35 16 -35 19 0 11 48 28 73 27 29 -2 37 12 11 22 -9 3 -16 6 -17 5 -1
0 -15 -5 -30 -9z"/>
<path d="M1606 479 c-14 -11 -26 -25 -26 -31 0 -7 10 -2 23 10 46 43 40 21 -6
-26 -26 -27 -45 -51 -42 -53 8 -9 65 2 65 12 0 5 -8 9 -17 9 -13 0 -9 8 15 33
18 18 32 38 32 44 0 22 -18 23 -44 2z"/>
<path d="M1682 475 c-59 -50 -67 -128 -9 -90 24 15 57 70 57 93 0 22 -19 21
-48 -3z m20 -23 c-7 -2 -12 -9 -12 -16 0 -7 -9 -21 -20 -31 -30 -27 -25 1 7
43 18 24 28 31 31 22 3 -8 0 -16 -6 -18z"/>
<path d="M1767 484 c-15 -8 -27 -22 -27 -31 0 -13 5 -12 25 7 14 13 25 19 25
13 0 -7 -18 -27 -40 -46 -47 -40 -52 -60 -12 -51 33 8 41 15 24 21 -8 3 -3 16
18 39 44 51 38 74 -13 48z"/>
<path d="M1822 478 c-22 -22 -12 -29 16 -11 l27 17 -25 -28 c-19 -21 -22 -29
-11 -35 11 -7 10 -11 -6 -20 -11 -5 -23 -7 -27 -4 -3 3 -6 -1 -6 -10 0 -21 3
-21 41 -1 25 12 30 20 25 39 -4 14 0 27 9 35 8 7 15 16 15 21 0 13 -44 11 -58
-3z"/>
<path d="M1427 453 c-9 -3 -24 -18 -32 -34 -9 -16 -20 -29 -26 -29 -7 0 -5 10
5 25 21 32 20 35 -7 35 -14 0 -32 -12 -46 -31 -27 -36 -41 -31 -17 6 12 19 13
25 3 25 -14 0 -39 -58 -31 -71 9 -16 26 -9 54 21 l29 31 -2 -27 c-2 -27 -1
-27 69 -29 68 -2 118 14 101 32 -4 4 -13 1 -19 -5 -7 -7 -19 -12 -27 -12 -13
1 -12 4 3 15 11 8 16 15 10 16 -5 0 2 5 15 10 16 6 21 13 14 20 -14 14 -43 0
-53 -27 -9 -22 -54 -43 -67 -30 -3 3 2 15 12 26 13 14 21 17 26 9 5 -8 8 -8
14 1 10 15 -5 28 -28 23z"/>
</g>
</svg>
